<?xml version="1.0" encoding="UTF-8" standalone="no"?>
<!-- Created with Inkscape (http://www.inkscape.org/) -->

<svg
   xmlns:dc="http://purl.org/dc/elements/1.1/"
   xmlns:cc="http://creativecommons.org/ns#"
   xmlns:rdf="http://www.w3.org/1999/02/22-rdf-syntax-ns#"
   xmlns:svg="http://www.w3.org/2000/svg"
   xmlns="http://www.w3.org/2000/svg"
   xmlns:xlink="http://www.w3.org/1999/xlink"
   xmlns:sodipodi="http://sodipodi.sourceforge.net/DTD/sodipodi-0.dtd"
   xmlns:inkscape="http://www.inkscape.org/namespaces/inkscape"
   width="400"
   height="400"
   id="svg2"
   version="1.1"
   inkscape:version="0.48.3.1 r9886"
   sodipodi:docname="openphoenux-logo.svg"
   inkscape:export-filename="/home/gaming/Pictures/openphoneux.png"
   inkscape:export-xdpi="90"
   inkscape:export-ydpi="90">
  <defs
     id="defs4">
    <linearGradient
       inkscape:collect="always"
       id="linearGradient4127">
      <stop
         style="stop-color:#eaeaea;stop-opacity:1;"
         offset="0"
         id="stop4129" />
      <stop
         style="stop-color:#eaeaea;stop-opacity:0;"
         offset="1"
         id="stop4131" />
    </linearGradient>
    <linearGradient
       id="linearGradient3755">
      <stop
         style="stop-color:#666666;stop-opacity:1;"
         offset="0"
         id="stop3757" />
      <stop
         style="stop-color:#2b2b2b;stop-opacity:1;"
         offset="1"
         id="stop3759" />
    </linearGradient>
    <linearGradient
       inkscape:collect="always"
       xlink:href="#linearGradient3755-4"
       id="linearGradient3761-0"
       x1="246.25"
       y1="908.79077"
       x2="246.25"
       y2="913.25507"
       gradientUnits="userSpaceOnUse" />
    <linearGradient
       id="linearGradient3755-4">
      <stop
         style="stop-color:#666666;stop-opacity:1;"
         offset="0"
         id="stop3757-3" />
      <stop
         style="stop-color:#2b2b2b;stop-opacity:1;"
         offset="1"
         id="stop3759-9" />
    </linearGradient>
    <linearGradient
       y2="913.25507"
       x2="246.25"
       y1="908.79077"
       x1="246.25"
       gradientUnits="userSpaceOnUse"
       id="linearGradient3783"
       xlink:href="#linearGradient3755-4"
       inkscape:collect="always"
       gradientTransform="matrix(0.77033032,0,0,0.77033032,50.054339,241.54271)" />
    <linearGradient
       y2="913.25507"
       x2="246.25"
       y1="908.79077"
       x1="246.25"
       gradientUnits="userSpaceOnUse"
       id="linearGradient3783-9"
       xlink:href="#linearGradient3755-4-0"
       inkscape:collect="always" />
    <linearGradient
       id="linearGradient3755-4-0">
      <stop
         style="stop-color:#666666;stop-opacity:1;"
         offset="0"
         id="stop3757-3-8" />
      <stop
         style="stop-color:#2b2b2b;stop-opacity:1;"
         offset="1"
         id="stop3759-9-4" />
    </linearGradient>
    <linearGradient
       y2="913.25507"
       x2="246.25"
       y1="908.79077"
       x1="246.25"
       gradientUnits="userSpaceOnUse"
       id="linearGradient3783-7"
       xlink:href="#linearGradient3755-4-7"
       inkscape:collect="always" />
    <linearGradient
       id="linearGradient3755-4-7">
      <stop
         style="stop-color:#666666;stop-opacity:1;"
         offset="0"
         id="stop3757-3-7" />
      <stop
         style="stop-color:#2b2b2b;stop-opacity:1;"
         offset="1"
         id="stop3759-9-47" />
    </linearGradient>
    <linearGradient
       inkscape:collect="always"
       xlink:href="#linearGradient4127"
       id="linearGradient4133"
       x1="159.73038"
       y1="238.69127"
       x2="159.73038"
       y2="230.98608"
       gradientUnits="userSpaceOnUse" />
  </defs>
  <sodipodi:namedview
     id="base"
     pagecolor="#ffffff"
     bordercolor="#666666"
     borderopacity="1.0"
     inkscape:pageopacity="0.0"
     inkscape:pageshadow="2"
     inkscape:zoom="0.7"
     inkscape:cx="-169.43485"
     inkscape:cy="94.533054"
     inkscape:document-units="px"
     inkscape:current-layer="layer9"
     showgrid="false"
     inkscape:window-width="1440"
     inkscape:window-height="841"
     inkscape:window-x="0"
     inkscape:window-y="27"
     inkscape:window-maximized="1" />
  <metadata
     id="metadata7">
    <rdf:RDF>
      <cc:Work
         rdf:about="">
        <dc:format>image/svg+xml</dc:format>
        <dc:type
           rdf:resource="http://purl.org/dc/dcmitype/StillImage" />
        <dc:title></dc:title>
      </cc:Work>
    </rdf:RDF>
  </metadata>
  <g
     inkscape:label="Phone"
     inkscape:groupmode="layer"
     id="layer1"
     transform="translate(0,-652.36218)"
     style="display:inline">
    <g
       inkscape:groupmode="layer"
       id="layer2"
       inkscape:label="Body">
      <g
         inkscape:groupmode="layer"
         id="layer4"
         inkscape:label="Base">
        <path
           style="fill:url(#linearGradient3783);fill-opacity:1;stroke:none"
           d="m 245.38809,834.866 -89.13822,0 -43.33108,108.39649 0,13.7559 172.77409,0 0,-13.7559 z"
           id="path2985"
           inkscape:connector-curvature="0"
           sodipodi:nodetypes="ccccccc" />
      </g>
      <g
         inkscape:groupmode="layer"
         id="layer6"
         inkscape:label="Shade">
        <path
           style="fill:#000000;fill-opacity:0.55251142;stroke:none"
           d="m 245.16456,834.90384 38.73317,108.76101 c 0.0781,7.40999 -0.81382,9.00008 -1.7528,10.30769 -23.29478,2.05088 -111.54042,1.93886 -167.31063,2.90829 l 43.0422,0.14443 127.82669,0 0,-13.76965 z"
           id="path3858"
           inkscape:connector-curvature="0"
           sodipodi:nodetypes="cccccccc" />
      </g>
      <g
         inkscape:groupmode="layer"
         id="layer5"
         inkscape:label="Sheen">
        <path
           style="fill:#e0e0e0;fill-opacity:0.42009134;stroke:none"
           d="m 156.23955,834.85569 -43.33108,108.39992 0,12.83081 0.14444,0.93884 c 1.26718,-4.2359 0.68493,-12.63304 3.86827,-12.55757 l 165.3396,-0.92321 -163.87018,-2.4795 39.21072,-105.56128 53.37983,-0.64801 z"
           id="path3763-6"
           inkscape:connector-curvature="0"
           sodipodi:nodetypes="cccccccccc" />
      </g>
    </g>
    <g
       inkscape:groupmode="layer"
       id="layer11"
       inkscape:label="Screen">
      <path
         style="fill:#eaeaea;fill-opacity:1;fill-rule:nonzero;stroke:none"
         d="m 160.10918,838.7149 81.31728,0 30.30458,98.99495 -143.94674,0 z"
         id="rect4001"
         inkscape:connector-curvature="0"
         sodipodi:nodetypes="ccccc" />
    </g>
  </g>
  <g
     inkscape:groupmode="layer"
     id="layer7"
     inkscape:label="Text">
    <g
       inkscape:groupmode="layer"
       id="layer10"
       inkscape:label="ux"
       style="display:none">
      <text
         xml:space="preserve"
         style="fill:#8a8a8a;fill-opacity:1;"
         x="307.95868"
         y="369.70413"
         id="text3911"
         sodipodi:linespacing="125%"><tspan
           sodipodi:role="line"
           x="307.95868"
           y="369.70413"
           id="tspan3915">ux</tspan></text>
    </g>
    <g
       inkscape:groupmode="layer"
       id="layer9"
       inkscape:label="phone"
       style="display:inline">
      <g
         style="fill:#ce6216;fill-opacity:1;"
         id="text3883">
        <path
           d="m 165.64777,365.7579 0,13.92188 -4.33594,0 0,-36.23438 4.33594,0 0,3.98438 c 0.90624,-1.56248 2.04686,-2.71873 3.42187,-3.46875 1.39061,-0.7656 3.04686,-1.14841 4.96875,-1.14844 3.18748,3e-5 5.77342,1.26565 7.75781,3.79688 1.99998,2.53127 2.99998,5.85939 3,9.98437 -2e-5,4.12501 -1.00002,7.45313 -3,9.98438 -1.98439,2.53125 -4.57033,3.79687 -7.75781,3.79687 -1.92189,0 -3.57814,-0.375 -4.96875,-1.125 -1.37501,-0.76562 -2.51563,-1.92968 -3.42187,-3.49219 m 14.67187,-9.16406 c -2e-5,-3.17186 -0.65627,-5.65623 -1.96875,-7.45312 -1.29689,-1.81248 -3.08595,-2.71873 -5.36719,-2.71875 -2.28126,2e-5 -4.07813,0.90627 -5.39062,2.71875 -1.29689,1.79689 -1.94532,4.28126 -1.94531,7.45312 -1e-5,3.17189 0.64842,5.66407 1.94531,7.47656 1.31249,1.79688 3.10936,2.69532 5.39062,2.69532 2.28124,0 4.0703,-0.89844 5.36719,-2.69532 1.31248,-1.81249 1.96873,-4.30467 1.96875,-7.47656"
           style=""
           id="path3045" />
        <path
           d="m 213.76495,353.85165 0,15.84375 -4.3125,0 0,-15.70312 c -2e-5,-2.48436 -0.48439,-4.34373 -1.45312,-5.57813 -0.96877,-1.23435 -2.42189,-1.85154 -4.35938,-1.85156 -2.32814,2e-5 -4.16407,0.74221 -5.50781,2.22656 -1.34376,1.4844 -2.01563,3.50783 -2.01562,6.07032 l 0,14.83593 -4.33594,0 0,-36.46875 4.33594,0 0,14.29688 c 1.03124,-1.5781 2.24217,-2.75779 3.63281,-3.53906 1.40623,-0.78123 3.02342,-1.17185 4.85156,-1.17188 3.01561,3e-5 5.29685,0.93753 6.84375,2.8125 1.54685,1.8594 2.32029,4.60158 2.32031,8.22656"
           style=""
           id="path3047" />
        <path
           d="m 232.58527,346.46884 c -2.31252,2e-5 -4.14064,0.90627 -5.48438,2.71875 -1.34376,1.7969 -2.01563,4.26564 -2.01562,7.40625 -1e-5,3.14064 0.66405,5.6172 1.99218,7.42969 1.34374,1.79688 3.17968,2.69531 5.50782,2.69531 2.29685,0 4.11716,-0.90624 5.46093,-2.71875 1.34373,-1.81249 2.01561,-4.28124 2.01563,-7.40625 -2e-5,-3.10936 -0.6719,-5.57029 -2.01563,-7.38281 -1.34377,-1.8281 -3.16408,-2.74217 -5.46093,-2.74219 m 0,-3.65625 c 3.74998,3e-5 6.69529,1.21878 8.83593,3.65625 2.1406,2.43752 3.21091,5.81252 3.21094,10.125 -3e-5,4.29689 -1.07034,7.67188 -3.21094,10.125 -2.14064,2.4375 -5.08595,3.65625 -8.83593,3.65625 -3.76564,0 -6.71876,-1.21875 -8.85938,-3.65625 -2.125,-2.45312 -3.1875,-5.82811 -3.1875,-10.125 0,-4.31248 1.0625,-7.68748 3.1875,-10.125 2.14062,-2.43747 5.09374,-3.65622 8.85938,-3.65625"
           style=""
           id="path3049" />
        <path
           d="m 274.21027,355.49228 0,2.10937 -19.82813,0 c 0.18749,2.96876 1.07812,5.23439 2.67188,6.79688 1.60936,1.54688 3.84373,2.32031 6.70312,2.32031 1.65623,0 3.25779,-0.20312 4.80469,-0.60937 1.56248,-0.40625 3.10935,-1.01562 4.64062,-1.82813 l 0,4.07813 c -1.5469,0.65625 -3.13283,1.15625 -4.75781,1.5 -1.62502,0.34375 -3.27345,0.51562 -4.94531,0.51562 -4.18751,0 -7.50782,-1.21875 -9.96094,-3.65625 -2.4375,-2.43749 -3.65625,-5.73436 -3.65625,-9.89062 0,-4.29686 1.15625,-7.70311 3.46875,-10.21875 2.32812,-2.53123 5.46093,-3.79685 9.39844,-3.79688 3.53123,3e-5 6.32029,1.14065 8.36719,3.42188 2.06247,2.26564 3.09372,5.35158 3.09375,9.25781 m -4.3125,-1.26563 c -0.0313,-2.35935 -0.69534,-4.24216 -1.99219,-5.64843 -1.28127,-1.40623 -2.98439,-2.10936 -5.10938,-2.10938 -2.40626,2e-5 -4.33595,0.67971 -5.78906,2.03906 -1.43751,1.3594 -2.26563,3.27346 -2.48437,5.74219 l 15.375,-0.0234"
           style=""
           id="path3051" />
        <path
           d="m 303.1087,353.85165 0,15.84375 -4.3125,0 0,-15.70312 c -2e-5,-2.48436 -0.48439,-4.34373 -1.45312,-5.57813 -0.96877,-1.23435 -2.42189,-1.85154 -4.35938,-1.85156 -2.32814,2e-5 -4.16407,0.74221 -5.50781,2.22656 -1.34376,1.4844 -2.01563,3.50783 -2.01562,6.07032 l 0,14.83593 -4.33594,0 0,-26.25 4.33594,0 0,4.07813 c 1.03124,-1.5781 2.24217,-2.75779 3.63281,-3.53906 1.40623,-0.78123 3.02342,-1.17185 4.85156,-1.17188 3.01561,3e-5 5.29685,0.93753 6.84375,2.8125 1.54685,1.8594 2.32029,4.60158 2.32031,8.22656"
           style=""
           id="path3053" />
        <path
           d="m 311.31183,359.33603 0,-15.89063 4.3125,0 0,15.72657 c -10e-6,2.48438 0.48436,4.35157 1.45312,5.60156 0.96874,1.23438 2.42187,1.85156 4.35938,1.85156 2.32811,0 4.16404,-0.74218 5.50781,-2.22656 1.35936,-1.48437 2.03904,-3.5078 2.03906,-6.07031 l 0,-14.88282 4.3125,0 0,26.25 -4.3125,0 0,-4.03125 c -1.04689,1.59376 -2.26564,2.78126 -3.65625,3.5625 -1.37501,0.76563 -2.97657,1.14844 -4.80468,1.14844 -3.01564,0 -5.3047,-0.9375 -6.86719,-2.8125 -1.56251,-1.87499 -2.34376,-4.61718 -2.34375,-8.22656 m 10.85156,-16.52344 0,0"
           style=""
           id="path3055" />
        <path
           d="m 364.0462,343.4454 -9.49218,12.77344 9.98437,13.47656 -5.08594,0 -7.64062,-10.3125 -7.64063,10.3125 -5.08593,0 10.19531,-13.73437 -9.32813,-12.51563 5.08594,0 6.96094,9.35157 6.96094,-9.35157 5.08593,0"
           style=""
           id="path3057" />
      </g>
    </g>
    <g
       inkscape:groupmode="layer"
       id="layer8"
       inkscape:label="open"
       style="display:inline">
      <g
         style="fill:#8b8b8b;fill-opacity:1;"
         id="text3879">
        <path
           d="m 51.928822,346.46884 c -2.312513,2e-5 -4.140636,0.90627 -5.484375,2.71875 -1.343758,1.7969 -2.015633,4.26564 -2.015625,7.40625 -8e-6,3.14064 0.664054,5.6172 1.992187,7.42969 1.34374,1.79688 3.179675,2.69531 5.507813,2.69531 2.296858,0 4.117168,-0.90624 5.460937,-2.71875 1.343729,-1.81249 2.015603,-4.28124 2.015625,-7.40625 -2.2e-5,-3.10936 -0.671896,-5.57029 -2.015625,-7.38281 -1.343769,-1.8281 -3.164079,-2.74217 -5.460937,-2.74219 m 0,-3.65625 c 3.749981,3e-5 6.695291,1.21878 8.835937,3.65625 2.140599,2.43752 3.210911,5.81252 3.210938,10.125 -2.7e-5,4.29689 -1.070339,7.67188 -3.210938,10.125 -2.140646,2.4375 -5.085956,3.65625 -8.835937,3.65625 -3.765636,0 -6.718758,-1.21875 -8.859375,-3.65625 -2.125004,-2.45312 -3.187503,-5.82811 -3.1875,-10.125 -3e-6,-4.31248 1.062496,-7.68748 3.1875,-10.125 2.140617,-2.43747 5.093739,-3.65622 8.859375,-3.65625"
           style=""
           id="path3036" />
        <path
           d="m 75.272572,365.7579 0,13.92188 -4.335938,0 0,-36.23438 4.335938,0 0,3.98438 c 0.90624,-1.56248 2.046864,-2.71873 3.421875,-3.46875 1.390611,-0.7656 3.046859,-1.14841 4.96875,-1.14844 3.187479,3e-5 5.773414,1.26565 7.757812,3.79688 1.999973,2.53127 2.999972,5.85939 3,9.98437 -2.8e-5,4.12501 -1.000027,7.45313 -3,9.98438 -1.984398,2.53125 -4.570333,3.79687 -7.757812,3.79687 -1.921891,0 -3.578139,-0.375 -4.96875,-1.125 -1.375011,-0.76562 -2.515635,-1.92968 -3.421875,-3.49219 m 14.671875,-9.16406 c -2.4e-5,-3.17186 -0.656273,-5.65623 -1.96875,-7.45312 -1.296896,-1.81248 -3.085956,-2.71873 -5.367188,-2.71875 -2.281264,2e-5 -4.078137,0.90627 -5.390625,2.71875 -1.296884,1.79689 -1.945321,4.28126 -1.945312,7.45312 -9e-6,3.17189 0.648428,5.66407 1.945312,7.47656 1.312488,1.79688 3.109361,2.69532 5.390625,2.69532 2.281232,0 4.070292,-0.89844 5.367188,-2.69532 1.312477,-1.81249 1.968726,-4.30467 1.96875,-7.47656"
           style=""
           id="path3038" />
        <path
           d="m 124.02257,355.49228 0,2.10937 -19.82812,0 c 0.18749,2.96876 1.07811,5.23439 2.67187,6.79688 1.60937,1.54688 3.84374,2.32031 6.70313,2.32031 1.65623,0 3.25779,-0.20312 4.80468,-0.60937 1.56248,-0.40625 3.10935,-1.01562 4.64063,-1.82813 l 0,4.07813 c -1.5469,0.65625 -3.13284,1.15625 -4.75781,1.5 -1.62502,0.34375 -3.27346,0.51562 -4.94532,0.51562 -4.18751,0 -7.50782,-1.21875 -9.96093,-3.65625 -2.43751,-2.43749 -3.656256,-5.73436 -3.656253,-9.89062 -3e-6,-4.29686 1.156243,-7.70311 3.468753,-10.21875 2.32811,-2.53123 5.46092,-3.79685 9.39843,-3.79688 3.53124,3e-5 6.32029,1.14065 8.36719,3.42188 2.06248,2.26564 3.09372,5.35158 3.09375,9.25781 m -4.3125,-1.26563 c -0.0313,-2.35935 -0.69533,-4.24216 -1.99219,-5.64843 -1.28127,-1.40623 -2.98439,-2.10936 -5.10937,-2.10938 -2.40626,2e-5 -4.33595,0.67971 -5.78906,2.03906 -1.43751,1.3594 -2.26564,3.27346 -2.48438,5.74219 l 15.375,-0.0234"
           style=""
           id="path3040" />
        <path
           d="m 152.92101,353.85165 0,15.84375 -4.3125,0 0,-15.70312 c -2e-5,-2.48436 -0.4844,-4.34373 -1.45313,-5.57813 -0.96877,-1.23435 -2.42189,-1.85154 -4.35937,-1.85156 -2.32814,2e-5 -4.16408,0.74221 -5.50781,2.22656 -1.34376,1.4844 -2.01564,3.50783 -2.01563,6.07032 l 0,14.83593 -4.33594,0 0,-26.25 4.33594,0 0,4.07813 c 1.03124,-1.5781 2.24218,-2.75779 3.63281,-3.53906 1.40624,-0.78123 3.02343,-1.17185 4.85157,-1.17188 3.0156,3e-5 5.29685,0.93753 6.84375,2.8125 1.54685,1.8594 2.32028,4.60158 2.32031,8.22656"
           style=""
           id="path3042" />
      </g>
    </g>
  </g>
  <g
     inkscape:groupmode="layer"
     id="layer12"
     inkscape:label="Phoenix">
    <g
       inkscape:groupmode="layer"
       id="layer13"
       inkscape:label="wisps"
       style="display:inline">
      <path
         style="fill:#d96717;fill-opacity:1;fill-rule:nonzero;stroke:none;display:inline"
         d="m 200.5,87.875 c 0,0 111.391,131.44178 49,181.8125 -7.48639,6.04406 -14.97966,11.20878 -22.34375,15.65625 l 29.78125,0 c 9.0551,-6.76754 16.39098,-15.20876 20.84375,-25.75 C 302.52999,201.0049 200.5,87.875 200.5,87.875 z"
         id="rect4001-3"
         inkscape:connector-curvature="0" />
      <path
         style="fill:#d96717;fill-opacity:1;stroke:none"
         d="M 228.03125,7.40625 C 184.969,26.03213 151.35445,49.323961 125.5,76.5 153.7637,52.756358 190.08314,28.084341 228.1875,7.40625 l -0.15625,0 z M 125.5,76.5 c -62.914133,52.85263 -85.978312,101.0574 -0.25,90.15625 117.2557,-14.91015 131.5998,45.36129 81.625,118.6875 l 2.4375,0 C 232.84811,257.40299 276.90806,193.73529 218.6875,164.625 179.46027,145.01138 57.553372,186.15482 84.34375,134.34375 95.088828,113.56338 108.65444,94.206644 125.5,76.5 z"
         id="path4026"
         inkscape:connector-curvature="0" />
      <path
         style="fill:#d96717;fill-opacity:1;stroke:none;display:inline"
         d="m 194.6828,262.11163 c 51.29948,-73.81781 -19.05112,-57.33695 -31.26051,-52.96726 -5.05095,1.80772 -83.896604,49.05884 -41.69891,71.65763 12.20209,-5.75202 12.14223,-9.34358 5.55584,-15.15229 -36.870572,-5.55584 35.18845,-73.20098 71.72084,-70.71067 66.75453,4.55047 -4.31726,67.17259 -4.31726,67.17259 z"
         id="path4029-0"
         inkscape:connector-curvature="0"
         sodipodi:nodetypes="csccsc" />
    </g>
    <g
       inkscape:groupmode="layer"
       id="layer15"
       inkscape:label="Body">
      <path
         style="fill:#d91717;fill-opacity:1;stroke:none"
         d="M 277.46875,4.65625 233.75,28.625 c 0,0 -18.37485,42.898118 -51.9375,47.25 -42.01071,5.447295 -117.00459,-13.536527 -116.96875,-4.21875 0.126924,32.99503 90.89616,63.10017 99.78125,64.90625 23.39195,4.75489 0.45012,44.37513 6.53125,38.75 12.23535,-11.31788 -11.00875,30.09246 -14.01206,24.05869 -3.00331,-6.03377 -2.63741,-2.44778 -2.875,2.58091 -0.23759,5.02869 15.56515,21.72973 -6.18859,37.73784 l 2.99715,0 c 9.91473,-8.11843 23.76535,-10.94751 21.391,-22.02782 -2.2249,-10.38291 12.38166,-18.19099 17.9375,-9.09962 5.55584,9.09137 -0.52654,-20.56716 1.03125,-28.78125 2.89304,-15.25471 13.78254,-31.61355 32.375,-34.03125 8.86111,-1.15227 10.72348,-1.17682 15.18158,-2.15884 4.4581,-0.98202 11.51192,-2.92151 30.75592,-7.90366 12.37489,-3.20378 79.77846,-34.75518 82.71875,-50 0.59773,-3.099087 -16.52036,-2.598073 -65.28125,-1.25 -99.76908,2.758278 -32.37284,-41.264192 -9.71875,-79.78125 z"
         id="path4052"
         inkscape:connector-curvature="0"
         sodipodi:nodetypes="ccsssszzccssssssssc" />
    </g>
    <g
       inkscape:groupmode="layer"
       id="layer16"
       inkscape:label="Fadeout">
      <rect
         style="fill:url(#linearGradient4133);fill-opacity:1;fill-rule:nonzero;stroke:none"
         id="rect4117"
         width="23.991123"
         height="11.490485"
         x="148.49243"
         y="230.92572" />
    </g>
    <g
       inkscape:groupmode="layer"
       id="layer14"
       inkscape:label="foreground wisp"
       style="display:inline">
      <path
         style="fill:#d96717;fill-opacity:1;stroke:none;display:inline"
         d="m 121.72338,280.802 c 67.68022,16.66751 161.62441,-55.05331 165.15994,-113.64216 3.53554,-58.58885 -98.48987,-113.13709 -98.48987,-113.13709 0,0 143.94674,71.21575 70.71068,157.58379 -36.81347,43.41452 -106.08083,57.92242 -131.82491,54.04317 -17.2296,-0.40458 -11.28544,13.8976 -5.55584,15.15229 z"
         id="path4029-0-3"
         inkscape:connector-curvature="0"
         sodipodi:nodetypes="cscscc" />
    </g>
  </g>
</svg>
